<svg width="16" height="28" viewBox="0 0 16 28" fill="none" xmlns="http://www.w3.org/2000/svg">
<g id="Frame" clip-path="url(#clip0_288_4644)">
<g id="Vector" filter="url(#filter0_b_288_4644)">
<path d="M0.800134 13.7C0.800134 10.2175 0.791702 6.72656 0.800134 3.24404C0.800134 1.81057 1.52531 0.764969 2.79857 0.35179C3.10213 0.250603 3.43099 0.208442 3.75142 0.208442C6.69426 0.20001 9.63711 0.20001 12.5715 0.208442C14.2833 0.216874 15.5312 1.45641 15.5312 3.15972C15.5397 10.1922 15.5397 17.2163 15.5312 24.2487C15.5312 25.952 14.2833 27.2 12.58 27.2C9.67084 27.2084 6.76172 27.2084 3.8526 27.2C2.03124 27.2 0.816999 26.0026 0.808567 24.1644C0.791702 20.6735 0.800134 17.191 0.800134 13.7ZM8.1699 2.65379C7.59651 2.65379 7.02312 2.65379 6.4413 2.65379C5.98596 2.66222 5.73299 2.87303 5.72456 3.24404C5.71613 3.62349 5.95223 3.88489 6.3907 3.88489C7.57122 3.90176 8.74329 3.90176 9.92381 3.88489C10.3454 3.87646 10.6321 3.58977 10.6153 3.24404C10.5984 2.88989 10.3201 2.65379 9.89008 2.65379C9.31669 2.65379 8.7433 2.65379 8.1699 2.65379ZM8.1699 22.3093C7.47846 22.3093 6.93037 22.8574 6.9388 23.532C6.94723 24.2066 7.51219 24.7547 8.18677 24.7462C8.84448 24.7378 9.37571 24.1981 9.37571 23.532C9.38414 22.8321 8.86135 22.3093 8.1699 22.3093Z" fill="#E60000"/>
<path d="M6.4413 2.1537V2.15379H6.44471H6.44811H6.45152H6.45493H6.45834H6.46175H6.46516H6.46856H6.47197H6.47538H6.47879H6.48219H6.4856H6.48901H6.49241H6.49582H6.49922H6.50263H6.50604H6.50944H6.51285H6.51625H6.51966H6.52306H6.52647H6.52987H6.53327H6.53668H6.54008H6.54349H6.54689H6.55029H6.55369H6.5571H6.5605H6.5639H6.56731H6.57071H6.57411H6.57751H6.58091H6.58431H6.58772H6.59112H6.59452H6.59792H6.60132H6.60472H6.60812H6.61152H6.61492H6.61832H6.62172H6.62512H6.62852H6.63192H6.63531H6.63871H6.64211H6.64551H6.64891H6.65231H6.6557H6.6591H6.6625H6.6659H6.66929H6.67269H6.67609H6.67948H6.68288H6.68628H6.68967H6.69307H6.69646H6.69986H6.70326H6.70665H6.71005H6.71344H6.71684H6.72023H6.72363H6.72702H6.73041H6.73381H6.7372H6.74059H6.74399H6.74738H6.75077H6.75417H6.75756H6.76095H6.76435H6.76774H6.77113H6.77452H6.77792H6.78131H6.7847H6.78809H6.79148H6.79487H6.79826H6.80165H6.80505H6.80844H6.81183H6.81522H6.81861H6.822H6.82539H6.82878H6.83217H6.83555H6.83894H6.84233H6.84572H6.84911H6.8525H6.85589H6.85928H6.86266H6.86605H6.86944H6.87283H6.87621H6.8796H6.88299H6.88638H6.88976H6.89315H6.89654H6.89992H6.90331H6.9067H6.91008H6.91347H6.91685H6.92024H6.92363H6.92701H6.9304H6.93378H6.93717H6.94055H6.94394H6.94732H6.95071H6.95409H6.95747H6.96086H6.96424H6.96763H6.97101H6.97439H6.97778H6.98116H6.98454H6.98793H6.99131H6.99469H6.99807H7.00146H7.00484H7.00822H7.0116H7.01499H7.01837H7.02175H7.02513H7.02851H7.03189H7.03527H7.03866H7.04204H7.04542H7.0488H7.05218H7.05556H7.05894H7.06232H7.0657H7.06908H7.07246H7.07584H7.07922H7.0826H7.08598H7.08936H7.09274H7.09611H7.09949H7.10287H7.10625H7.10963H7.11301H7.11639H7.11976H7.12314H7.12652H7.1299H7.13328H7.13665H7.14003H7.14341H7.14678H7.15016H7.15354H7.15692H7.16029H7.16367H7.16705H7.17042H7.1738H7.17717H7.18055H7.18393H7.1873H7.19068H7.19405H7.19743H7.2008H7.20418H7.20755H7.21093H7.2143H7.21768H7.22105H7.22443H7.2278H7.23118H7.23455H7.23793H7.2413H7.24468H7.24805H7.25142H7.2548H7.25817H7.26154H7.26492H7.26829H7.27166H7.27504H7.27841H7.28178H7.28516H7.28853H7.2919H7.29527H7.29865H7.30202H7.30539H7.30876H7.31213H7.31551H7.31888H7.32225H7.32562H7.32899H7.33236H7.33574H7.33911H7.34248H7.34585H7.34922H7.35259H7.35596H7.35933H7.3627H7.36607H7.36944H7.37281H7.37618H7.37955H7.38293H7.38629H7.38966H7.39303H7.3964H7.39977H7.40314H7.40651H7.40988H7.41325H7.41662H7.41999H7.42336H7.42673H7.4301H7.43347H7.43683H7.4402H7.44357H7.44694H7.45031H7.45368H7.45705H7.46041H7.46378H7.46715H7.47052H7.47389H7.47725H7.48062H7.48399H7.48736H7.49072H7.49409H7.49746H7.50082H7.50419H7.50756H7.51093H7.51429H7.51766H7.52103H7.52439H7.52776H7.53113H7.53449H7.53786H7.54123H7.54459H7.54796H7.55132H7.55469H7.55806H7.56142H7.56479H7.56815H7.57152H7.57489H7.57825H7.58162H7.58498H7.58835H7.59171H7.59508H7.59844H7.60181H7.60517H7.60854H7.6119H7.61527H7.61863H7.622H7.62536H7.62873H7.63209H7.63546H7.63882H7.64219H7.64555H7.64891H7.65228H7.65564H7.65901H7.66237H7.66573H7.6691H7.67246H7.67583H7.67919H7.68255H7.68592H7.68928H7.69264H7.69601H7.69937H7.70273H7.7061H7.70946H7.71282H7.71619H7.71955H7.72291H7.72628H7.72964H7.733H7.73637H7.73973H7.74309H7.74645H7.74982H7.75318H7.75654H7.7599H7.76327H7.76663H7.76999H7.77335H7.77672H7.78008H7.78344H7.7868H7.79016H7.79353H7.79689H7.80025H7.80361H7.80697H7.81034H7.8137H7.81706H7.82042H7.82378H7.82715H7.83051H7.83387H7.83723H7.84059H7.84395H7.84732H7.85068H7.85404H7.8574H7.86076H7.86412H7.86748H7.87084H7.87421H7.87757H7.88093H7.88429H7.88765H7.89101H7.89437H7.89773H7.90109H7.90446H7.90782H7.91118H7.91454H7.9179H7.92126H7.92462H7.92798H7.93134H7.9347H7.93806H7.94142H7.94478H7.94814H7.9515H7.95487H7.95823H7.96159H7.96495H7.96831H7.97167H7.97503H7.97839H7.98175H7.98511H7.98847H7.99183H7.99519H7.99855H8.00191H8.00527H8.00863H8.01199H8.01535H8.01871H8.02207H8.02543H8.02879H8.03215H8.03551H8.03887H8.04223H8.04559H8.04895H8.05231H8.05567H8.05903H8.06239H8.06575H8.06911H8.07247H8.07583H8.07919H8.08255H8.08591H8.08927H8.09263H8.09599H8.09935H8.10271H8.10607H8.10943H8.11279H8.11615H8.11951H8.12287H8.12623H8.12959H8.13295H8.13631H8.13967H8.14303H8.14639H8.14975H8.15311H8.15647H8.15982H8.16318H8.16654H8.1699H8.17326H8.17662H8.17998H8.18334H8.1867H8.19006H8.19342H8.19678H8.20014H8.2035H8.20686H8.21022H8.21358H8.21694H8.2203H8.22366H8.22702H8.23038H8.23374H8.2371H8.24046H8.24382H8.24718H8.25054H8.2539H8.25726H8.26062H8.26398H8.26734H8.2707H8.27406H8.27741H8.28077H8.28413H8.28749H8.29085H8.29421H8.29757H8.30093H8.30429H8.30765H8.31101H8.31437H8.31773H8.32109H8.32445H8.32781H8.33117H8.33453H8.33789H8.34125H8.34461H8.34797H8.35133H8.35469H8.35805H8.36141H8.36477H8.36813H8.37149H8.37485H8.37821H8.38157H8.38493H8.38829H8.39164H8.395H8.39836H8.40172H8.40508H8.40844H8.4118H8.41516H8.41852H8.42188H8.42524H8.4286H8.43196H8.43532H8.43868H8.44204H8.4454H8.44876H8.45212H8.45548H8.45884H8.4622H8.46556H8.46892H8.47228H8.47564H8.479H8.48236H8.48572H8.48908H8.49244H8.4958H8.49916H8.50252H8.50588H8.50923H8.51259H8.51595H8.51931H8.52267H8.52603H8.52939H8.53275H8.53611H8.53947H8.54283H8.54619H8.54955H8.55291H8.55627H8.55963H8.56299H8.56635H8.56971H8.57307H8.57643H8.57979H8.58315H8.58651H8.58987H8.59323H8.59659H8.59995H8.60331H8.60667H8.61003H8.61339H8.61675H8.62011H8.62347H8.62682H8.63018H8.63354H8.6369H8.64026H8.64362H8.64698H8.65034H8.6537H8.65706H8.66042H8.66378H8.66714H8.6705H8.67386H8.67722H8.68058H8.68394H8.6873H8.69066H8.69402H8.69738H8.70074H8.7041H8.70746H8.71082H8.71418H8.71754H8.7209H8.72426H8.72762H8.73098H8.73434H8.7377H8.74106H8.74442H8.74777H8.75113H8.75449H8.75785H8.76121H8.76457H8.76793H8.77129H8.77465H8.77801H8.78137H8.78473H8.78809H8.79145H8.79481H8.79817H8.80153H8.80489H8.80825H8.81161H8.81497H8.81833H8.82169H8.82505H8.82841H8.83177H8.83513H8.83849H8.84185H8.84521H8.84857H8.85193H8.85529H8.85865H8.86201H8.86537H8.86872H8.87208H8.87544H8.8788H8.88216H8.88552H8.88888H8.89224H8.8956H8.89896H8.90232H8.90568H8.90904H8.9124H8.91576H8.91912H8.92248H8.92584H8.9292H8.93256H8.93592H8.93928H8.94264H8.946H8.94936H8.95272H8.95608H8.95944H8.9628H8.96616H8.96952H8.97288H8.97624H8.9796H8.98295H8.98631H8.98967H8.99303H8.99639H8.99975H9.00311H9.00647H9.00983H9.01319H9.01655H9.01991H9.02327H9.02663H9.02999H9.03335H9.03671H9.04007H9.04343H9.04679H9.05015H9.05351H9.05687H9.06023H9.06359H9.06695H9.07031H9.07367H9.07703H9.08039H9.08375H9.08711H9.09047H9.09383H9.09719H9.10054H9.1039H9.10726H9.11062H9.11398H9.11734H9.1207H9.12406H9.12742H9.13078H9.13414H9.1375H9.14086H9.14422H9.14758H9.15094H9.1543H9.15766H9.16102H9.16438H9.16774H9.1711H9.17446H9.17782H9.18118H9.18454H9.1879H9.19126H9.19462H9.19798H9.20134H9.2047H9.20806H9.21142H9.21478H9.21813H9.22149H9.22485H9.22821H9.23157H9.23493H9.23829H9.24165H9.24501H9.24837H9.25173H9.25509H9.25845H9.26181H9.26517H9.26853H9.27189H9.27525H9.27861H9.28197H9.28533H9.28869H9.29205H9.29541H9.29877H9.30213H9.30549H9.30885H9.31221H9.31557H9.31893H9.32229H9.32565H9.32901H9.33237H9.33572H9.33908H9.34244H9.3458H9.34916H9.35252H9.35588H9.35924H9.3626H9.36596H9.36932H9.37268H9.37604H9.3794H9.38276H9.38612H9.38948H9.39284H9.3962H9.39956H9.40292H9.40628H9.40964H9.413H9.41636H9.41972H9.42308H9.42644H9.4298H9.43316H9.43652H9.43988H9.44324H9.4466H9.44996H9.45331H9.45667H9.46003H9.46339H9.46675H9.47011H9.47347H9.47683H9.48019H9.48355H9.48691H9.49027H9.49363H9.49699H9.50035H9.50371H9.50707H9.51043H9.51379H9.51715H9.52051H9.52387H9.52723H9.53059H9.53395H9.53731H9.54067H9.54403H9.54739H9.55075H9.55411H9.55747H9.56083H9.56419H9.56755H9.57091H9.57427H9.57762H9.58098H9.58434H9.5877H9.59106H9.59442H9.59778H9.60114H9.6045H9.60786H9.61122H9.61458H9.61794H9.6213H9.62466H9.62802H9.63138H9.63474H9.6381H9.64146H9.64482H9.64818H9.65154H9.6549H9.65826H9.66162H9.66498H9.66834H9.6717H9.67506H9.67842H9.68178H9.68514H9.6885H9.69186H9.69522H9.69858H9.70193H9.70529H9.70865H9.71201H9.71537H9.71873H9.72209H9.72545H9.72881H9.73217H9.73553H9.73889H9.74225H9.74561H9.74897H9.75233H9.75569H9.75905H9.76241H9.76577H9.76913H9.77249H9.77585H9.77921H9.78257H9.78593H9.78929H9.79265H9.79601H9.79937H9.80273H9.80609H9.80945H9.81281H9.81616H9.81952H9.82288H9.82624H9.8296H9.83296H9.83632H9.83968H9.84304H9.8464H9.84976H9.85312H9.85648H9.85984H9.8632H9.86656H9.86992H9.87328H9.87664H9.88H9.88336H9.88672H9.89008C10.1943 2.15379 10.4918 2.23775 10.7255 2.43014C10.9653 2.62768 11.0999 2.90954 11.1147 3.22026M6.4413 2.1537L10.6153 3.24404M6.4413 2.1537L6.43204 2.15387C6.13652 2.15935 5.83468 2.23104 5.5969 2.42747C5.34554 2.63511 5.23162 2.92747 5.22469 3.23268L5.22468 3.23294C5.21808 3.5298 5.30829 3.83212 5.53649 4.06032C5.76327 4.2871 6.06961 4.3841 6.3868 4.38489M6.4413 2.1537L5.72456 3.24404C5.71613 3.62349 5.95223 3.88489 6.3907 3.88489M11.1147 3.22026L10.6153 3.24404M11.1147 3.22026C11.1147 3.22007 11.1147 3.21988 11.1147 3.21968L10.6153 3.24404M11.1147 3.22026C11.1477 3.90355 10.577 4.37193 9.93381 4.38479L9.93095 4.38485C8.74675 4.40176 7.57097 4.40178 6.3868 4.38489M10.6153 3.24404C10.6321 3.58977 10.3454 3.87646 9.92381 3.88489C8.74329 3.90176 7.57122 3.90176 6.3907 3.88489M6.3868 4.38489C6.3881 4.38489 6.3894 4.38489 6.3907 4.38489V3.88489M6.3868 4.38489C6.38572 4.38487 6.38464 4.38486 6.38356 4.38484L6.3907 3.88489M1.30013 3.24526V3.24404C1.30013 2.00765 1.90379 1.16782 2.9529 0.827376L2.95291 0.827392L2.95669 0.826132C3.19886 0.745406 3.47255 0.708442 3.75142 0.708444L3.75285 0.70844C6.69456 0.700011 9.63628 0.700011 12.5696 0.708438C14.0101 0.715765 15.0312 1.73595 15.0312 3.15972V3.16032C15.0397 10.1924 15.0397 17.2161 15.0312 24.2481V24.2487C15.0312 25.6759 14.0071 26.7 12.58 26.7L12.5785 26.7C9.67036 26.7084 6.7622 26.7084 3.85405 26.7H3.8526C3.05371 26.7 2.42836 26.4395 2.00323 26.0169C1.57827 25.5945 1.31226 24.9692 1.30856 24.1621L1.30856 24.162C1.29592 21.5455 1.2975 18.9343 1.29908 16.319C1.29961 15.4466 1.30013 14.5737 1.30013 13.7C1.30013 12.5386 1.2992 11.3767 1.29826 10.2147C1.29639 7.89076 1.29451 5.56647 1.30013 3.24526ZM8.19302 25.2462L8.19318 25.2462C9.12658 25.2342 9.87409 24.4703 9.87571 23.535C9.88595 22.557 9.13775 21.8093 8.1699 21.8093C7.20809 21.8093 6.42682 22.577 6.43884 23.5382C6.45074 24.4905 7.24388 25.2581 8.19302 25.2462Z" stroke="#E60000"/>
</g>
</g>
<defs>
<filter id="filter0_b_288_4644" x="-11.2036" y="-11.7979" width="38.7412" height="51.0042" filterUnits="userSpaceOnUse" color-interpolation-filters="sRGB">
<feFlood flood-opacity="0" result="BackgroundImageFix"/>
<feGaussianBlur in="BackgroundImageFix" stdDeviation="6"/>
<feComposite in2="SourceAlpha" operator="in" result="effect1_backgroundBlur_288_4644"/>
<feBlend mode="normal" in="SourceGraphic" in2="effect1_backgroundBlur_288_4644" result="shape"/>
</filter>
<clipPath id="clip0_288_4644">
<rect width="14.7311" height="27" fill="white" transform="translate(0.800049 0.200012)"/>
</clipPath>
</defs>
</svg>
